<?xml version="1.0" standalone="no"?><!DOCTYPE svg PUBLIC "-//W3C//DTD SVG 1.1//EN" "http://www.w3.org/Graphics/SVG/1.1/DTD/svg11.dtd"><svg t="1781674904081" class="icon" viewBox="0 0 1024 1024" version="1.1" xmlns="http://www.w3.org/2000/svg" p-id="48539" xmlns:xlink="http://www.w3.org/1999/xlink" width="128" height="128"><path d="M239 732h620c5.5 0 10 4.5 10 10v14.8c0 47.1-38.2 85.2-85.2 85.2H311.2C265.8 842 229 805.2 229 759.8V742c0-5.5 4.5-10 10-10z" fill="#D46B08" p-id="48540"></path><path d="M239.3 732.1h575.5c5.5 0 10 4.5 10 10V757c0 47.3-38.3 85.6-85.6 85.6H311.9c-45.6 0-82.6-37-82.6-82.6v-17.9c0-5.5 4.5-10 10-10z" fill="#FA8C16" p-id="48541"></path><path d="M331 502h433c27.6 0 50 22.4 50 50v151c0 27.6-22.4 50-50 50H331c-27.6 0-50-22.4-50-50V552c0-27.6 22.4-50 50-50z" fill="#D46B08" p-id="48542"></path><path d="M331.2 502.9h386.1c27.6 0 50 22.4 50 50v150.3c0 27.6-22.4 50-50 50H331.2c-27.6 0-50-22.4-50-50V552.9c0-27.6 22.4-50 50-50z" fill="#FFA940" p-id="48543"></path><path d="M438 541.3H311.7l-4.1 47.6c-1.2 14-11.9 25.3-25.8 27.3-11.4 1.6-21.9-6.3-23.5-17.6-0.1-1-0.2-2-0.2-3V412c0-22.1 17.9-40 40-40h502c22.1 0 40 17.9 40 40v140.3c0 27.6-22.4 50-50 50h-10.4c-27.6 0-50-22.4-50-50v-11H638V621c0 27.6-22.4 50-50 50h-10.4c-27.6 0-50-22.4-50-50v-63.4c0 24.7-20 44.7-44.7 44.7s-44.7-20-44.7-44.7v-16.3z" fill="#FFA940" p-id="48544"></path><path d="M438.1 542.3H311.7l-4.1 47.8c-1.2 14-11.9 25.3-25.8 27.3-11.4 1.6-21.9-6.3-23.6-17.6-0.1-1-0.2-2-0.2-3V412.4c0-22.1 17.9-40 40-40h458c21.8 0 39.6 17.5 40 39.3v155c0 14.3-11.6 26-26 26-11.5 0-21.6-7.6-24.9-18.6-2.7-9-5-19.6-7-31.9h-100v80c0 27.6-22.4 50-50 50h-10.5c-27.6 0-50-22.4-50-50v-63.6c0 24.7-20 44.7-44.7 44.7-24.7 0-44.7-20-44.7-44.7v-16.3z" fill="#FFF566" p-id="48545"></path><path d="M476.7 382.1c-27.6 13.1-55.4 5.3-72.7-32.2-13.8-29.9-15.7-70.8-5.8-122.7 35.7-7.2 68.3-2 97.7 15.7 10.9 6.6 18.7 15.1 23.8 24.7-31.4 14.4-52.9 43.3-52.9 76.6 0 13.7 3.6 26.5 9.9 37.9z" fill="#389E0D" p-id="48546"></path><path d="M475.3 379.4c-29.4 21.3-51.5 12.5-71.5-30.7C390 318.8 388.1 277.9 398 226.1c17.4 0.6 40.9 9.7 70.3 27.4 12.8 7.7 22.2 17.7 28.5 28.7-18.5 15.7-30 37.7-30 62.1 0 12.5 3 24.4 8.5 35.1z" fill="#52C41A" p-id="48547"></path><path d="M500.7 382.2c-2.9-11.4-4-24.3-4-37.8 0-47.7 44-86.4 98.3-86.4 48 22.9 68.5 38.7 68.5 86.4 0 13.6-3.6 26.4-9.9 37.8H500.7z" fill="#CF1322" p-id="48548"></path><path d="M500.7 382.2c-2.9-11.4-4-24.3-4-37.8 0-47.7 29.5-82.9 83.9-82.9 48 22.9 60.6 41.2 52.5 92.3-1.7 10.6-3.2 20-5.1 28.4H500.7z" fill="#F5222D" p-id="48549"></path><path d="M534 294a12.5 11 0 1 0 25 0 12.5 11 0 1 0-25 0Z" fill="#FFCCC7" p-id="48550"></path></svg>